<svg xmlns="http://www.w3.org/2000/svg" width="86" height="92" viewBox="0 0 86 92">
  <g fill="none" fill-rule="evenodd" class="page-1">
    <path fill="#2733C1" fill-rule="nonzero" d="M51.641,0 C54.508,0 57.517,1.257 59.031,3.316 C59.394,3.105 59.798,2.935 60.239,2.811 C63.274,1.96 67.836,3.369 69.734,5.148 C71.409,6.726 74.524,9.658 74.524,13.408 L74.5240313,30.4859834 C74.9140269,31.2236754 75.135,32.0639695 75.135,32.955 C75.135,35.878 72.757,38.255 69.835,38.255 C69.7658302,38.255 69.6977604,38.2503286 69.6310885,38.2412838 L69.632,46.231 C69.632,48.3095531 68.9949186,50.4968324 67.887591,52.4007448 C70.7937248,53.472963 72.872,56.2717951 72.872,59.547 L72.871,61.749 L81.269,62.834 C82.612,62.987 83.955,63.71 84.753,64.717 C85.268,65.366 85.159,66.309 84.509,66.824 C84.234,67.043 83.906,67.149 83.579,67.149 C83.137,67.149 82.699,66.954 82.403,66.581 C82.096,66.194 81.481,65.877 80.907,65.812 L72.871,64.774 L72.8714208,74.8701341 C76.5614082,75.5737825 79.36,78.8242398 79.36,82.715 C79.36,87.119 75.776,90.702 71.372,90.702 C66.969,90.702 63.387,87.119 63.387,82.715 C63.387,78.8240019 66.1831019,75.5746554 69.8711278,74.8704486 L69.871,64.387 L58.150119,62.8750022 C58.1128834,62.9128475 58.0734788,62.9489111 58.032,62.983 L44.244,74.273 C43.968,74.499 43.631,74.612 43.294,74.612 C42.964,74.612 42.634,74.504 42.361,74.286 L28.149,62.996 C28.0954808,62.9535434 28.0452916,62.9077569 27.9986328,62.859058 L16.79,64.305 L16.79,70.031 L28.151,70.032 C28.98,70.032 29.651,70.703 29.651,71.532 L29.651,87.64 C29.651,88.468 28.98,89.14 28.151,89.14 L21.825,89.14 L21.825,89.661 C21.825,90.49 21.154,91.161 20.325,91.161 C19.496,91.161 18.825,90.49 18.825,89.661 L18.825,85.617 C18.825,84.788 19.496,84.117 20.325,84.117 C21.154,84.117 21.825,84.788 21.825,85.617 L21.825,86.14 L26.651,86.14 L26.651,73.032 L3,73.032 L3,86.14 L7.825,86.14 L7.825,85.617 C7.825,84.788 8.496,84.117 9.325,84.117 C10.154,84.117 10.825,84.788 10.825,85.617 L10.825,89.661 C10.825,90.49 10.154,91.161 9.325,91.161 C8.496,91.161 7.825,90.49 7.825,89.661 L7.825,89.14 L1.5,89.14 C0.671,89.14 -4.65405492e-13,88.469 -4.65405492e-13,87.64 L-4.65405492e-13,71.532 C-4.65405492e-13,70.703 0.671,70.032 1.5,70.032 L13.79,70.031 L13.79,64.692 L5.128,65.81 C4.532,65.878 3.918,66.194 3.61,66.581 C3.315,66.955 2.877,67.149 2.434,67.149 C2.107,67.149 1.779,67.043 1.503,66.824 C0.854,66.309 0.745,65.366 1.259,64.717 C2.057,63.71 3.401,62.987 4.765,62.831 L13.79,61.665 L13.79,59.547 C13.79,55.9859942 16.2475286,52.9881271 19.5554188,52.159346 C18.3831132,50.2438204 17.727,48.1663204 17.727,46.231 L17.7269113,38.2414192 C17.6605589,38.2503752 17.5928239,38.255 17.524,38.255 C14.602,38.255 12.224,35.878 12.224,32.955 C12.224,32.063162 12.4452807,31.2221525 12.8358353,30.4839782 L12.837,13.408 C12.837,10.519 14.235,7.741 16.993,5.149 C19.18,3.092 22.517,1.908 26.156,1.896 L51.529,0.004 C51.566,0.001 51.604,0 51.641,0 Z M71.372,77.728 C68.623,77.728 66.387,79.965 66.387,82.714 C66.387,85.464 68.623,87.701 71.372,87.701 C74.122,87.701 76.36,85.464 76.36,82.714 C76.36,79.965 74.123,77.728 71.372,77.728 Z M30.581,58.737 L30.582,61.098 L43.28,71.185 L55.582,61.112 L55.581,58.74 L30.739,58.74 L30.581,58.737 Z M65.9106199,54.9781254 L65.932,54.958 C63.8943093,56.9939719 61.2221551,58.3238355 58.581417,58.6574983 L58.582,59.904 L69.871,61.361 L69.872,59.547 C69.872,57.2238343 68.1471348,55.296471 65.9106199,54.9781254 Z M21.406,54.932 C18.861,54.932 16.79,57.002 16.79,59.547 L16.79,61.277 L27.582,59.885 L27.5817328,58.2753238 C25.4091723,57.6610631 23.2831309,56.4767881 21.763,54.958 L21.7064382,54.901962 C21.609381,54.9216602 21.5089079,54.932 21.406,54.932 Z M66.631,23.685 L54.1750084,23.6869919 C51.9838306,26.8906844 48.3225331,28.848 44.421,28.848 C40.5193355,28.848 36.8579227,26.8914167 34.6667702,23.6868507 L20.726,23.685 L20.727,46.231 C20.727,48.772 22.358,51.309 23.884,52.837 C25.594,54.545 28.414,55.74 30.739,55.74 L57.291,55.74 C59.52,55.74 62.018,54.627 63.811,52.836 L63.9574416,52.6819296 C64.0606932,52.5032905 64.1997235,52.347974 64.3647674,52.2257452 C65.7779514,50.5357921 66.632,48.3055757 66.632,46.231 L66.631,23.685 Z M39.779,46.642 C40.424,47.289 41.53,48.15 43.679,48.15 C45.828,48.15 46.936,47.289 47.582,46.642 C48.167,46.055 49.117,46.054 49.703,46.639 C50.29,47.224 50.291,48.174 49.706,48.76 C48.124,50.346 46.096,51.15 43.679,51.15 C41.261,51.15 39.234,50.346 37.654,48.759 C37.069,48.172 37.071,47.222 37.658,46.638 C38.244,46.053 39.195,46.055 39.779,46.642 Z M44.779,35.093 L47.294,41.093 C47.488,41.556 47.438,42.085 47.16,42.503 C46.881,42.921 46.412,43.172 45.91,43.172 L41.449,43.172 C40.62,43.172 39.949,42.501 39.949,41.672 C39.949,40.843 40.62,40.172 41.449,40.172 L43.655,40.172 L42.012,36.252 C41.692,35.488 42.052,34.609 42.816,34.289 C43.577,33.967 44.459,34.328 44.779,35.093 Z M54.742,33.17 C55.022,33.45 55.182,33.84 55.182,34.23 C55.182,34.62 55.022,35.01 54.742,35.29 C54.462,35.57 54.072,35.73 53.682,35.73 C53.282,35.73 52.902,35.57 52.622,35.29 C52.342,35.01 52.182,34.63 52.182,34.23 C52.182,33.83 52.342,33.45 52.622,33.17 C53.172,32.61 54.182,32.61 54.742,33.17 Z M34.742,33.17 C35.022,33.45 35.182,33.84 35.182,34.23 C35.182,34.62 35.022,35.01 34.742,35.29 C34.462,35.57 34.072,35.73 33.682,35.73 C33.282,35.73 32.902,35.57 32.622,35.29 C32.342,35.01 32.182,34.62 32.182,34.23 C32.182,33.84 32.342,33.45 32.622,33.17 C33.172,32.61 34.182,32.61 34.742,33.17 Z M17.524,30.655 C16.256,30.655 15.224,31.687 15.224,32.955 C15.224,34.223 16.256,35.255 17.524,35.255 C17.5928239,35.255 17.6605589,35.2596248 17.7269113,35.2685808 L17.7269113,30.6414192 C17.6605589,30.6503752 17.5928239,30.655 17.524,30.655 Z M69.6310885,30.6412838 L69.6310885,35.2687162 C69.6977604,35.2596714 69.7658302,35.255 69.835,35.255 C71.103,35.255 72.135,34.223 72.135,32.955 C72.135,31.687 71.103,30.655 69.835,30.655 C69.7658302,30.655 69.6977604,30.6503286 69.6310885,30.6412838 Z M51.694,2.999 L26.324,4.892 C26.287,4.894 26.25,4.896 26.213,4.896 C23.351,4.896 20.672,5.808 19.048,7.335 C16.917,9.337 15.837,11.381 15.837,13.408 L15.8362802,27.9303124 C16.3665925,27.7517854 16.9341804,27.655 17.524,27.655 C17.5928239,27.655 17.6605589,27.6596248 17.7269113,27.6685808 L17.727,21.841 C17.727,21.7345065 17.7380729,21.6306203 17.7591311,21.5304289 L17.761,11.867 C17.761,11.038 18.432,10.367 19.261,10.367 L34.667438,10.3655462 C36.8585511,7.16317754 40.5188105,5.207 44.421,5.207 C48.3226645,5.207 51.983213,7.16358328 54.1750473,10.3665425 L68.099,10.367 C68.928,10.367 69.599,11.038 69.599,11.867 L69.5998689,21.5304289 C69.6209271,21.6306203 69.632,21.7345065 69.632,21.841 L69.6310885,27.6687162 C69.6977604,27.6596714 69.7658302,27.655 69.835,27.655 C70.4246446,27.655 70.9921369,27.7517942 71.5224063,27.9303367 L71.523,13.408 C71.523,11.143 69.539,9.085 67.679,7.334 C66.6,6.322 63.052,5.139 61.049,5.699 C60.27,5.918 60.067,6.299 59.971,6.643 C59.771,7.366 59.072,7.827 58.324,7.728 C57.58,7.627 57.026,6.992 57.026,6.242 C57.026,4.508 54.108,3.021 51.694,2.999 Z M44.421,8.207 C41.29,8.207 38.367,9.897 36.791,12.619 C36.012,13.964 35.601,15.488 35.601,17.028 C35.601,18.567 36.013,20.091 36.791,21.435 C38.367,24.157 41.291,25.848 44.421,25.848 C47.551,25.848 50.475,24.157 52.051,21.435 C52.829,20.091 53.241,18.567 53.241,17.028 C53.241,15.488 52.829,13.964 52.051,12.62 C50.476,9.897 47.552,8.207 44.421,8.207 Z M44.421,10.628 C47.95,10.628 50.821,13.499 50.821,17.028 C50.821,20.556 47.95,23.427 44.421,23.427 C40.892,23.427 38.021,20.556 38.021,17.028 C38.021,13.499 40.892,10.628 44.421,10.628 Z M66.599,13.367 L55.6550065,13.3668569 C56.0413803,14.5462275 56.241,15.7822663 56.241,17.027 C56.241,18.2714828 56.0412676,19.5076284 55.6546793,20.6872044 L66.599,20.686 L66.599,13.367 Z M33.1867467,13.3659435 L20.761,13.367 L20.761,20.686 L33.1866443,20.6862062 C32.799982,19.506931 32.6,18.2711318 32.6,17.027 C32.6,15.7822943 32.7998039,14.5459288 33.1867467,13.3659435 Z M44.421,13.627 C42.546,13.627 41.021,15.152 41.021,17.027 C41.021,18.902 42.546,20.426 44.421,20.426 C46.296,20.426 47.821,18.901 47.821,17.027 C47.821,15.152 46.296,13.627 44.421,13.627 Z" class="page-1__doc"/>
  </g>
</svg>
