<svg xmlns="http://www.w3.org/2000/svg" width="91" height="76" viewBox="0 0 91 76">
  <g fill="none" fill-rule="evenodd" class="page-1">
    <path fill="#0F8F2F" fill-rule="nonzero" d="M89.205,17.763 C89.964,17.763 90.58,18.379 90.58,19.138 L90.58,74.401 C90.58,75.16 89.964,75.776 89.205,75.776 L83.284,75.776 L83.265,75.775 L57.6442733,75.7758678 C57.6378595,75.7759558 57.6314349,75.776 57.625,75.776 L1.375,75.776 C0.616,75.776 0,75.16 0,74.401 L0,46.769 C0,46.643 0.017,46.519 0.05,46.4 C0.458,42.253 3.793,38.927 7.943,38.533 C8.055,38.503 8.17,38.486 8.283,38.486 L57.625,38.486 C58.384,38.486 59,39.102 59,39.861 L58.9999335,40.6662536 C59.3505033,40.0445304 59.7883124,39.4669932 60.307,38.949 C61.799,37.456 63.784,36.634 65.895,36.634 C68.009,36.634 69.996,37.457 71.487,38.951 C72.0383793,39.5020098 72.4983917,40.1204864 72.8592644,40.7879573 L75.282,34.935 C76.302,32.474 80.246,32.24 81.027,32.218 C81.3510179,32.2103661 81.6606464,32.3128107 81.9101158,32.5070259 L81.909,19.138 C81.909,18.379 82.525,17.763 83.284,17.763 L89.205,17.763 Z M87.83,20.513 L84.659,20.513 L84.659,73.026 L87.83,73.026 L87.83,20.513 Z M48.355,41.236 L8.515,41.236 C8.461,41.247 8.407,41.255 8.353,41.258 C5.379,41.466 2.981,43.864 2.773,46.838 C2.769,46.896 2.761,46.954 2.75,47.01 L2.75,73.026 L48.355,73.026 L48.356,67.493 C48.356,66.734 48.972,66.118 49.731,66.118 C50.49,66.118 51.106,66.734 51.106,67.493 L51.105,73.026 L56.25,73.026 L56.25,41.236 L51.105,41.236 L51.106,59.598 C51.106,60.358 50.49,60.973 49.731,60.973 C48.972,60.973 48.356,60.357 48.356,59.598 L48.355,41.236 Z M81.908,69.854 L59,69.854 L59,73.026 L81.908,73.026 L81.908,69.854 Z M81.908,51.105 L59,51.105 L59,67.104 L81.908,67.104 L81.908,51.105 Z M32.357,49.43 C32.894,49.967 32.894,50.837 32.357,51.374 L18.9,64.832 C18.631,65.101 18.28,65.235 17.928,65.235 C17.576,65.235 17.224,65.101 16.956,64.832 C16.419,64.295 16.419,63.425 16.956,62.888 L30.413,49.43 C30.95,48.893 31.82,48.893 32.357,49.43 Z M39.085,49.43 C39.622,49.967 39.622,50.837 39.085,51.374 L25.628,64.832 C25.36,65.101 25.008,65.235 24.656,65.235 C24.304,65.235 23.952,65.101 23.684,64.832 C23.147,64.295 23.147,63.425 23.684,62.888 L37.141,49.43 C37.678,48.893 38.548,48.893 39.085,49.43 Z M50.7,62.578 C50.96,62.828 51.11,63.188 51.11,63.548 C51.11,63.908 50.96,64.258 50.7,64.518 C50.45,64.778 50.09,64.918 49.73,64.918 C49.37,64.918 49.01,64.778 48.76,64.518 C48.5,64.258 48.36,63.908 48.36,63.548 C48.36,63.188 48.5,62.828 48.76,62.578 C49.27,62.068 50.19,62.058 50.7,62.578 Z M65.896,39.384 C64.52,39.384 63.226,39.921 62.252,40.894 C61.277,41.868 60.741,43.162 60.741,44.54 C60.741,45.918 61.277,47.212 62.251,48.185 C62.3042487,48.2382487 62.3522272,48.2947717 62.3949334,48.3539206 L69.3990666,48.3536783 C69.4417728,48.2945931 69.4897513,48.2381496 69.543,48.185 C70.517,47.212 71.053,45.918 71.053,44.54 C71.053,43.162 70.517,41.868 69.543,40.895 C68.569,39.92 67.274,39.384 65.896,39.384 Z M81.909,44.175 L80.428,47.749 C80.3371846,47.9681143 80.2231902,48.1695749 80.0903136,48.3548037 L81.909,48.354 L81.909,44.175 Z M80.478,35.013 C79.212,35.155 77.991,35.584 77.824,35.988 L74.048,45.105 C73.877,45.516 74.428,46.667 75.234,47.672 C76.515,47.531 77.718,47.107 77.888,46.696 L81.666,37.579 C81.848,37.139 81.221,35.946 80.478,35.013 Z M56.638,-4.36983782e-13 C57.397,-4.36983782e-13 58.0130012,0.616 58.0130012,1.375 L58.0130012,23.085 C58.014,23.845 57.398,24.46 56.639,24.46 L33.941,24.46 C33.182,24.46 32.566,23.844 32.566,23.085 L32.566,1.375 C32.566,0.616 33.182,-4.36983782e-13 33.941,-4.36983782e-13 L56.638,-4.36983782e-13 Z M55.263,2.75 L35.316,2.75 L35.316,21.71 L55.263,21.71 L55.263,2.75 Z M45.784,4.934 C46.543,4.934 47.159,5.55 47.159,6.309 L47.159,10.854 L51.704,10.855 C52.463,10.855 53.079,11.471 53.079,12.23 C53.079,12.989 52.464,13.605 51.705,13.605 L47.159,13.604 L47.159,18.151 C47.159,18.91 46.543,19.526 45.784,19.526 C45.025,19.526 44.409,18.91 44.409,18.151 L44.409,13.604 L39.862,13.605 C39.103,13.605 38.487,12.989 38.487,12.23 C38.487,11.471 39.103,10.855 39.862,10.855 L44.409,10.854 L44.409,6.309 C44.409,5.55 45.025,4.934 45.784,4.934 Z" class="page-1__hospital"/>
  </g>
</svg>
