<?xml version="1.0" encoding="UTF-8"?>
<!DOCTYPE svg PUBLIC "-//W3C//DTD SVG 1.1//EN" "http://www.w3.org/Graphics/SVG/1.1/DTD/svg11.dtd">
<!-- Creator: CorelDRAW 2020 (64-Bit) -->
<svg xmlns="http://www.w3.org/2000/svg" xml:space="preserve" width="11in" height="8.5in" version="1.1" style="shape-rendering:geometricPrecision; text-rendering:geometricPrecision; image-rendering:optimizeQuality; fill-rule:evenodd; clip-rule:evenodd"
viewBox="0 0 11000 8500"
 xmlns:xlink="http://www.w3.org/1999/xlink"
 xmlns:xodm="http://www.corel.com/coreldraw/odm/2003">
 <defs>
  <style type="text/css">
   <![CDATA[
    .fil0 {fill:#6669BA;fill-rule:nonzero}
   ]]>
  </style>
 </defs>
 <g id="Layer_x0020_1">
  <metadata id="CorelCorpID_0Corel-Layer"/>
  <g id="_1522084454384">
   <path class="fil0" d="M2444.17 1186.87c1.67,13.29 5.65,24.26 9.97,28.94 6.25,40.49 34.12,63.17 70.17,63.17l0.59 0c36.05,0 63.91,-22.67 70.16,-63.17 4.33,-4.67 8.3,-15.65 9.97,-28.94 1.88,-14.95 0.28,-28.2 -3.58,-33.24 0.09,-0.98 0.19,-1.95 0.29,-2.93 2.41,-23.99 -4.13,-47.7 -18.77,-64.28 -15.47,-17.51 -37.11,-25.39 -57.96,-25.38l-0.81 0c-21.52,-0.01 -43.96,8.42 -59.47,27.15 -13.65,16.49 -19.56,39.44 -17.26,62.5 0.1,0.98 0.2,1.95 0.3,2.93 -3.87,5.04 -5.46,18.3 -3.59,33.24z"/>
   <path class="fil0" d="M1924.31 1097.88c2.87,22.87 9.7,41.75 17.15,49.81 10.76,69.68 58.71,108.7 120.74,108.7l1.02 0c62.02,0 109.97,-39.02 120.73,-108.7 7.44,-8.05 14.28,-26.94 17.17,-49.81 3.24,-25.72 0.48,-48.52 -6.17,-57.2 0.16,-1.69 0.33,-3.36 0.5,-5.05 4.13,-41.28 -7.12,-82.09 -32.3,-110.6 -26.61,-30.13 -63.87,-43.69 -99.74,-43.68l-1.41 0c-37.04,-0 -75.65,14.49 -102.35,46.73 -23.48,28.37 -33.66,67.86 -29.69,107.56 0.17,1.69 0.33,3.36 0.5,5.05 -6.66,8.69 -9.41,31.48 -6.17,57.2z"/>
   <path class="fil0" d="M2382.98 1442.4c8.52,9.37 13.6,22.56 13.6,38.08l0 397c0,7.35 -1.15,14.7 -3.26,21.85 94.41,-45.28 190.55,-71.6 295.4,-75.24l0 -462.51c-108.8,3.76 -208.6,32.2 -305.74,80.82z"/>
   <path class="fil0" d="M2314.35 1454.78c-25.13,2.36 -37.84,2.36 -62.97,0 -24.54,-2.7 -47.42,13.65 -47.19,39.53l0 374.66c0.75,26.78 19.92,51.6 47.19,55.22 25.13,2.36 37.84,2.35 62.97,-0 27.27,-3.6 46.44,-28.43 47.19,-55.21l0 -374.66c0.23,-25.88 -22.65,-42.23 -47.19,-39.53z"/>
   <path class="fil0" d="M2182.1 1442.19c-33.19,-17.46 -67.68,-32.44 -103.13,-44.67 -3.73,2.48 -5.59,3.73 -9.33,6.25l0 171.56c-16.64,-19.74 -33.48,-39.26 -50.58,-58.6 -21.77,9.98 -32.66,15.45 -54.34,27.36l0 -149.23c10.31,-8.76 15.47,-13.03 25.8,-21.37 -37.94,-6.79 -75.72,-11.72 -114.33,-12.19l0 169.97 102.12 56.87c54.81,30.54 74.57,99.97 44.04,154.78 -19.73,35.43 -57.22,57.81 -97.83,58.4l-0.32 0.01 -3.07 -0.01c-15.49,-0.24 -30.84,-3.73 -44.94,-10.08l0 32.57c104.8,3.64 200.92,29.92 295.31,75.16 -2.05,-7.06 -3.16,-14.3 -3.16,-21.54 -0,-152.54 0,-244.47 0,-397.01 0,-15.61 5.15,-28.87 13.76,-38.24z"/>
   <path class="fil0" d="M2652.22 1325.85c0.4,-6.08 0.8,-12.17 1.2,-18.26 1.03,-22.11 -16.63,-38.42 -37.42,-40.79 -19.07,30.81 -51.61,49.12 -91.1,49.12l-0.59 0c-39.5,0 -72.03,-18.31 -91.1,-49.12 -20.78,2.37 -38.45,18.69 -37.42,40.8 1.85,28.09 3.7,56.17 5.55,84.26 83.05,-37.24 165.72,-59 250.89,-66z"/>
   <path class="fil0" d="M2361.82 1281.83c-73.81,-29.81 -140.26,-56.26 -157.89,-62.1 -28.92,48.81 -79.32,77.91 -140.7,77.91l-1.02 0c-61.38,0 -111.78,-29.1 -140.7,-77.9 -47.4,15.81 -101.38,41.3 -105.14,48.28 0,0 -168.23,264.84 -168.94,266.12 -18.72,33.62 -6.65,76.04 26.97,94.77l214.66 119.54c10.4,5.8 21.65,8.61 32.77,8.78l2.06 0c24.1,-0.35 47.36,-13.19 59.93,-35.76 18.72,-33.61 6.65,-76.04 -26.97,-94.77l-136.53 -76.03 0 -39.81 18.06 10.09 0 -197.92 39.12 1.35c109.83,3.8 214.95,31.54 321.35,84.8l22.46 11.24c7.93,-2.45 53.86,-1.7 61.53,-1.7 7.67,0 52.75,-0.89 60.3,1.32l21.44 -10.73 -6.58 -99.96c-0.45,-9.64 0.92,-18.91 3.81,-27.53z"/>
  </g>
 </g>
</svg>
