<?xml version="1.0" encoding="UTF-8"?>
<svg width="86px" height="80px" viewBox="0 0 86 80" version="1.1" xmlns="http://www.w3.org/2000/svg" xmlns:xlink="http://www.w3.org/1999/xlink">
    <!-- Generator: Sketch 57.1 (83088) - https://sketch.com -->
    <title>Combined Shape</title>
    <desc>Created with Sketch.</desc>
    <g id="Final-Designs" stroke="none" stroke-width="1" fill="none" fill-rule="evenodd">
        <g id="Ensure---Main" transform="translate(-1233.000000, -1095.000000)" fill="#3639A4" fill-rule="nonzero">
            <g id="Group-8" transform="translate(818.000000, 1050.000000)">
                <g id="Group-2" transform="translate(382.000000, 2.000000)">
                    <g id="mortarboard-(5)" transform="translate(33.000000, 43.000000)">
                        <path d="M60.3288703,71.4624268 C61.0493625,71.6426286 61.504185,72.340086 61.3957148,73.0597378 L61.3687029,73.1948117 L59.9405858,78.9074477 C59.7777406,79.5558159 59.1964854,79.9886192 58.5566527,79.9886192 C58.4423431,79.9886192 58.3251883,79.9757322 58.2095397,79.9457741 C57.4890475,79.7655722 57.033039,79.0693009 57.1426254,78.3486724 L57.1698745,78.2133891 L58.5979916,72.5007531 C58.7879498,71.736569 59.5633473,71.2681172 60.3288703,71.4624268 Z M64.2677824,72.8478661 C65.0111149,72.8478661 65.6202783,73.4146383 65.6893725,74.1385153 L65.6958996,74.2759833 L65.6958996,78.5605021 C65.6958996,79.3487866 65.0575732,79.9886192 64.2677824,79.9886192 C63.5244499,79.9886192 62.9152866,79.4218471 62.8461924,78.6979701 L62.8396653,78.5605021 L62.8396653,74.2759833 C62.8396653,73.4876987 63.4779916,72.8478661 64.2677824,72.8478661 Z M68.2066946,71.4624268 C68.969205,71.2696234 69.7462762,71.7367364 69.9375732,72.5007531 L69.9375732,72.5007531 L71.3658577,78.2133891 C71.5573222,78.980251 71.0917155,79.754477 70.3261925,79.9457741 C70.2103766,79.9757322 70.0933891,79.9886192 69.9790795,79.9886192 C69.3392469,79.9886192 68.7579916,79.5558159 68.5951464,78.9074477 L68.5951464,78.9074477 L67.1670293,73.1948117 C66.9755649,72.4292887 67.4411715,71.6537238 68.2066946,71.4624268 Z M43.2385235,0.0665015797 L43.390795,0.119497908 L84.8093724,17.2574059 C85.3420921,17.4788285 85.6905439,17.9986611 85.6905439,18.5770711 C85.6905439,19.1072803 85.3976069,19.5895339 84.937423,19.8356191 L84.8078661,19.8967364 L65.6960669,27.8060251 L65.6960669,30.3867782 L82.8341423,23.3330544 L82.8341423,22.8617573 C82.8341423,22.0734728 83.4724686,21.4336402 84.2622594,21.4336402 C85.0055919,21.4336402 85.6149035,22.0004123 85.6840151,22.7244289 L85.6905439,22.8619247 L85.6905439,24.2900418 C85.6905439,24.820251 85.3976069,25.3036297 84.9362628,25.5499024 L84.8063598,25.611046 L65.6958996,33.4759833 L65.6958996,51.1914644 C67.3768234,49.4228151 68.2351711,47.6318005 68.5197051,46.9556212 L68.5523013,46.8769874 L68.5523013,37.1439331 C68.5523013,36.3556485 69.1906276,35.7158159 69.9804184,35.7158159 C70.7237509,35.7158159 71.3329142,36.2825881 71.4020084,37.0064651 L71.4085356,37.1439331 L71.4085356,47.1410879 C71.4085356,47.2995816 71.3814226,47.4580753 71.3300418,47.6080335 C71.2671415,47.7869064 69.8580516,51.7388614 65.9540569,54.8084709 L65.6958996,55.007364 L65.6958996,63.1136402 C67.3541423,63.7064435 68.5523013,65.2759833 68.5523013,67.1353975 C68.5523013,69.4975732 66.6299582,71.4199163 64.2677824,71.4199163 C61.9056067,71.4199163 59.9832636,69.4975732 59.9832636,67.1353975 C59.9832636,65.3473383 61.0911837,63.827439 62.6504312,63.1863175 L62.8396653,63.1136402 L62.8396653,27.9290377 L46.5414226,21.8435146 C45.5502929,22.4717992 44.2749791,22.8617573 42.8453556,22.8617573 C39.6420084,22.8617573 37.1327197,20.9794142 37.1327197,18.5772385 C37.1327197,16.1750628 39.6420084,14.2927197 42.8453556,14.2927197 C46.0487029,14.2927197 48.5579916,16.1750628 48.5579916,18.5772385 C48.5579916,18.8161088 48.5298431,19.0477301 48.4808185,19.2739383 L48.4251046,19.49841 L64.1307113,25.3625105 L80.5275314,18.5772385 L42.8451883,2.98443515 L5.16284519,18.5772385 L42.8451883,34.1700418 L57.2756485,28.2001674 C58.0040167,27.900251 58.8394979,28.2445188 59.1409205,28.972887 C59.4246124,29.6598277 59.1351572,30.4403162 58.4916209,30.7798036 L58.3668619,30.838159 L43.3909623,37.0349791 C43.2167364,37.1079498 43.0311297,37.1435983 42.8453556,37.1435983 C42.7060251,37.1435983 42.5667887,37.1234519 42.4323771,37.0826647 L42.299749,37.0349791 L0.882677824,19.8969038 C0.348451883,19.6769874 -1.85451654e-12,19.1556485 -1.85451654e-12,18.5772385 C-1.85451654e-12,18.0470293 0.292796374,17.5660414 0.753085774,17.319007 L0.882677824,17.2575732 L42.299749,0.119497908 C42.5995696,-0.00416019127 42.9298847,-0.021825634 43.2385235,0.0665015797 Z M64.2677824,65.707113 C63.4794979,65.707113 62.8396653,66.3482845 62.8396653,67.1352301 C62.8396653,67.9221757 63.4794979,68.5633473 64.2677824,68.5633473 C65.0560669,68.5633473 65.6958996,67.9220084 65.6958996,67.1352301 C65.6958996,66.3482845 65.0560669,65.707113 64.2677824,65.707113 Z M15.7101255,35.7154812 C16.4520404,35.7154812 17.0624546,36.2822533 17.1317008,37.0061303 L17.1382427,37.1435983 L17.1382427,46.843682 C17.9527766,48.613918 23.5697184,59.1606009 40.888828,59.920084 L41.4172385,59.9400837 L41.4172385,47.1407531 C41.4172385,46.3524686 42.0570711,45.712636 42.8453556,45.712636 C43.5872705,45.712636 44.1976847,46.2794081 44.266931,47.0032851 L44.2734728,47.1407531 L44.2734728,59.9529707 C50.6801674,59.7400837 55.2103766,58.1805858 57.9225105,56.8394979 C58.6323013,56.4895397 59.4863598,56.7809205 59.8348117,57.4878661 C60.1861088,58.1948117 59.8960669,59.0502092 59.1881172,59.4 C56.0033473,60.9738912 50.5819247,62.8505439 42.845523,62.8505439 C20.7102929,62.8505439 14.6319665,48.2903766 14.383431,47.6719665 C14.3330962,47.5445607 14.3012134,47.4115063 14.2884179,47.2764043 L14.2820084,47.1407531 L14.2820084,37.1435983 C14.2820084,36.3553138 14.921841,35.7154812 15.7101255,35.7154812 Z M1.42828452,21.4336402 C2.17019936,21.4336402 2.78061357,22.0004123 2.84985983,22.7242893 L2.85640167,22.8617573 L2.85640167,23.3358996 L42.8451883,39.8826778 L58.0068619,33.607364 C58.7337238,33.3087866 59.5720502,33.6515481 59.8734728,34.3814226 C60.1570071,35.0669456 59.8675427,35.8473507 59.2252616,36.188089 L59.1007531,36.2466946 L43.390795,42.7477824 C43.216569,42.8205858 43.030795,42.8562343 42.8451883,42.8562343 C42.7059833,42.8562343 42.5666841,42.8360879 42.4323039,42.7953007 L42.299749,42.7476151 L0.882677824,25.6095397 C0.392970711,25.4079498 0.0593654114,24.9530811 0.00716527196,24.4331466 L-1.69819714e-12,24.2898745 L-1.69819714e-12,22.8617573 C-1.69819714e-12,22.0734728 0.64,21.4336402 1.42828452,21.4336402 Z M42.8451883,17.1491213 C41.1012552,17.1491213 39.9887866,17.994477 39.9887866,18.5772385 C39.9887866,19.1598326 41.1014226,20.0053556 42.8451883,20.0053556 C44.588954,20.0053556 45.70159,19.16 45.70159,18.5772385 C45.70159,17.9946444 44.5891213,17.1491213 42.8451883,17.1491213 Z" id="Combined-Shape"></path>
                    </g>
                </g>
            </g>
        </g>
    </g>
</svg>