<?xml version="1.0" encoding="UTF-8"?>
<svg width="59px" height="80px" viewBox="0 0 59 80" version="1.1" xmlns="http://www.w3.org/2000/svg" xmlns:xlink="http://www.w3.org/1999/xlink">
    <!-- Generator: Sketch 57.1 (83088) - https://sketch.com -->
    <title>Combined Shape</title>
    <desc>Created with Sketch.</desc>
    <g id="Final-Designs" stroke="none" stroke-width="1" fill="none" fill-rule="evenodd">
        <g id="Ensure---Main" transform="translate(-855.000000, -1473.000000)" fill="#D5860C" fill-rule="nonzero">
            <g id="Group-8" transform="translate(818.000000, 1050.000000)">
                <g id="Group-2-Copy-2" transform="translate(2.000000, 377.000000)">
                    <g id="bonfire" transform="translate(35.000000, 46.000000)">
                        <path d="M2.69795181,71.8449398 L2.73278752,71.9766082 L3.09473684,73.6865497 L4.5345809,73.2806238 C5.23586745,73.0864717 5.97723197,73.4948928 6.1754386,74.202885 C6.36140351,74.8654581 6.01159539,75.5524281 5.38377536,75.8001849 L5.2545809,75.8437427 L3.64834308,76.2948928 L3.83734893,77.1837817 L17.0647953,74.3706823 C17.7780897,74.2138012 18.488577,74.6755556 18.642963,75.3952437 C18.7852144,76.0689279 18.3918299,76.7321954 17.7488395,76.9385259 L17.6169981,76.9735673 L4.39079922,79.7854191 C4.20444444,79.8253411 4.01824561,79.8453021 3.83189084,79.8453021 C3.32350877,79.8453021 2.82588694,79.6990253 2.38939571,79.4155166 C1.84628035,79.0633635 1.45807936,78.5397993 1.28103151,77.9246128 L1.23430799,77.7373879 L0.128499025,72.5289669 C-0.0232358674,71.8103704 0.434463938,71.1036257 1.15446394,70.9506433 C1.82814815,70.8034211 2.49251218,71.2023885 2.69795181,71.8449398 Z M4.2251825,58.2764866 L4.3897076,58.3061209 L12.294269,59.9854971 C13.0141131,60.137232 13.4719688,60.8438207 13.3202339,61.5638207 C13.1754971,62.2375049 12.5429587,62.6843525 11.8756924,62.6103667 L11.7419103,62.588538 L3.83734893,60.9077583 L3.62042885,61.9337232 L5.9811306,62.4500585 C6.69847953,62.6070955 7.15352827,63.3177388 6.99649123,64.0349318 C6.86206628,64.6563743 6.30986355,65.0808577 5.69902534,65.0808577 C5.63508772,65.0808577 5.57177388,65.0767685 5.50829832,65.0677121 L5.4128655,65.0502924 L3.06807018,64.5380117 L2.73278752,66.1149318 L54.7978168,77.182846 L55.0746199,75.8786745 L49.7529825,74.8140351 C49.0331384,74.6702534 48.5646784,73.9689669 48.7097076,73.2477193 C48.8445029,72.5715497 49.4692928,72.1198867 50.1411546,72.1845426 L50.2760234,72.2044444 L55.6282261,73.2756335 L55.9036257,71.9755166 L34.4881092,67.4230019 C33.7695127,67.2698635 33.3116569,66.5632749 33.4633918,65.8446784 C33.6069591,65.1696784 34.2357237,64.7239821 34.9070202,64.7981169 L35.0417154,64.819961 L56.4584795,69.3724756 C57.8391963,69.6668226 58.7412344,70.9884543 58.5376869,72.3649854 L58.5079142,72.5303704 L57.9730214,75.0481092 L57.9730214,75.1012865 L57.9603899,75.1337817 L57.9477583,75.1652242 L57.4008577,77.7348928 C57.1332554,78.9843275 56.0247953,79.8440546 54.7965692,79.8440546 C54.6750357,79.8440546 54.5528785,79.8357375 54.4301437,79.8187799 L54.245614,79.7868226 L2.17793372,68.7190643 C0.797216974,68.4247173 -0.105974601,67.1030857 0.0998410113,65.7265546 L0.129902534,65.5611696 L1.23446394,60.3553996 C1.52881092,58.9760324 2.85534471,58.0740462 4.2251825,58.2764866 Z M23.6898349,66.4208157 L23.8223782,66.4436647 L36.9634308,69.3260039 C37.6820273,69.4830409 38.1358285,70.1936842 37.9773879,70.9108772 C37.8417154,71.5323197 37.2907602,71.9568031 36.679922,71.9568031 L36.5363158,71.9488304 L36.3937622,71.9248343 L23.2527096,69.0424951 C22.5341131,68.8854581 22.0803119,68.1748148 22.2373489,67.4576218 C22.3845712,66.7839376 23.0276815,66.3417501 23.6898349,66.4208157 Z M57.3594709,60.1922018 L57.3994542,60.3553996 L58.5079142,65.5625731 C58.6596491,66.2811696 58.2017934,66.9879142 57.4831969,67.1408967 C57.3888499,67.1608577 57.2969981,67.1702144 57.2051462,67.1702144 C56.6341743,67.1702144 56.1172566,66.8008442 55.9386962,66.247269 L55.9036257,66.1163353 L55.585653,64.6178558 L54.2123977,65.0038207 C54.0938791,65.037037 53.971462,65.054347 53.8516959,65.054347 C53.2715789,65.054347 52.7365302,64.6697856 52.57154,64.082963 C52.385575,63.4205361 52.7353832,62.7323416 53.3632032,62.4844312 L53.4923977,62.4408577 L55.0307992,62.0096686 L54.7965692,60.9104094 L45.6251072,62.859883 C44.9051072,63.011462 44.1997661,62.5551657 44.0467836,61.8351657 C43.9045322,61.1614815 44.2979167,60.498351 44.9398792,60.2920376 L45.071501,60.2569981 L54.2442105,58.3061209 C55.6339241,58.0131234 56.9865834,58.8519414 57.3594709,60.1922018 Z M33.568499,0.0252631579 C34.0035867,0.111812865 34.3669396,0.409824561 34.537232,0.818401559 C37.0616764,6.87454191 40.3499415,11.3138402 43.5318519,15.6082651 L44.0578758,16.3186827 C48.8668217,22.8221058 53.271423,29.1397367 53.271423,39.7690448 C53.271423,52.5294347 42.077193,63.7222612 29.3168031,63.7222612 C16.5578168,63.7222612 5.36483431,52.5294347 5.36483431,39.7690448 C5.36483431,26.2421832 13.5368421,15.2304094 20.3928265,8.37442495 C20.7747368,7.99376218 21.345653,7.87929825 21.8420273,8.08561404 C22.3398051,8.29192982 22.6644834,8.77769981 22.6644834,9.31524366 C22.6644834,12.7550877 23.1767641,15.6801559 23.7409747,17.8545029 C25.0916179,12.8587914 27.8156725,4.94362573 32.3694347,0.389863548 C32.6835088,0.0757894737 33.1346589,-0.0598830409 33.568499,0.0252631579 Z M32.9299025,3.76748538 C27.5936062,10.55423 25.3274074,22.7290448 25.3033918,22.8608187 C25.2023392,23.4250292 24.7497856,23.8587135 24.182924,23.939961 C23.6093567,24.0184016 23.0596491,23.7295906 22.8042105,23.2173099 C22.705653,23.0189474 20.6830409,18.905731 20.1373879,12.494191 C14.1916569,19.0254971 8.02651072,28.5136842 8.02651072,39.7692008 C8.02651072,50.9127485 18.1746589,61.0608967 29.3169591,61.0608967 C40.4619103,61.0608967 50.6100585,50.9127485 50.6100585,39.7692008 C50.6100585,29.6316569 46.3384016,23.8668226 41.3933723,17.1918908 C38.4578558,13.2302534 35.4317349,9.14635478 32.9299025,3.76748538 Z M43.9563353,38.4383626 C44.6908382,38.4383626 45.2870175,39.0345419 45.2870175,39.7690448 C45.2870175,48.5745029 38.1236647,55.7378558 29.3168031,55.7378558 C28.5823002,55.7378558 27.9875243,55.1416764 27.9875243,54.4070175 C27.9875243,53.6725146 28.5824561,53.0763353 29.3169591,53.0763353 C36.6546589,53.0763353 42.625653,47.1067446 42.625653,39.7690448 C42.625653,39.0345419 43.2204288,38.4383626 43.9563353,38.4383626 Z M18.0032749,49.1519688 C18.5235088,48.6329825 19.3659259,48.6356335 19.8849123,49.1560234 C21.2049903,50.48 22.748538,51.4941131 24.477193,52.1687329 C25.1611696,52.4363353 25.4991033,53.2081092 25.2316569,53.8920858 C25.0265887,54.4190253 24.5236647,54.7398051 23.9926706,54.7398051 C23.8303314,54.7398051 23.6665887,54.7104873 23.5069006,54.6479532 C21.4348538,53.8375049 19.5811306,52.6212865 18.0006238,51.0350097 C17.4802339,50.5146199 17.482885,49.6723587 18.0032749,49.1519688 Z M8.02635478,10.64577 C9.4928655,10.64577 10.6878752,11.8395322 10.6878752,13.3072904 C10.6878752,14.7752047 9.4928655,15.9688109 8.02635478,15.9688109 C6.55859649,15.9688109 5.36499025,14.7752047 5.36483431,13.3072904 C5.36483431,11.8393762 6.55859649,10.64577 8.02635478,10.64577 Z M43.9961014,5.32304094 C44.7306043,5.32304094 45.3267836,5.91922027 45.3267836,6.6537232 C45.3267836,7.38822612 44.7306043,7.98440546 43.9961014,7.98440546 C43.2601949,7.98440546 42.6587135,7.38822612 42.6587135,6.6537232 C42.6587135,5.96512671 43.1757091,5.39810368 43.8455453,5.32991563 L43.9814425,5.32304094 L43.9961014,5.32304094 Z M9.39711501,2.66152047 C10.1316179,2.66152047 10.7277973,3.25769981 10.7277973,3.99220273 C10.7277973,4.72670565 10.1316179,5.32288499 9.39711501,5.32288499 C8.66120858,5.32288499 8.0597271,4.72670565 8.0597271,3.99220273 C8.0597271,3.30360624 8.57672271,2.73658321 9.24655892,2.66839516 L9.38245614,2.66152047 L9.39711501,2.66152047 Z M19.3376998,7.95807864e-13 C20.4382066,7.95807864e-13 21.3323977,0.895594542 21.3323977,1.99610136 C21.3323977,3.09660819 20.4382066,3.99220273 19.3376998,3.99220273 C18.2357895,3.99220273 17.3415984,3.09660819 17.3415984,1.99610136 C17.3415984,0.895594542 18.2357895,7.95807864e-13 19.3376998,7.95807864e-13 Z" id="Combined-Shape"></path>
                    </g>
                </g>
            </g>
        </g>
    </g>
</svg>