<?xml version="1.0" encoding="UTF-8"?>
<svg width="80px" height="80px" viewBox="0 0 80 80" version="1.1" xmlns="http://www.w3.org/2000/svg" xmlns:xlink="http://www.w3.org/1999/xlink">
    <!-- Generator: Sketch 57.1 (83088) - https://sketch.com -->
    <title>Combined Shape</title>
    <desc>Created with Sketch.</desc>
    <g id="Final-Designs" stroke="none" stroke-width="1" fill="none" fill-rule="evenodd">
        <g id="Ensure---Main" transform="translate(-856.000000, -1096.000000)" fill="#32ACBF" fill-rule="nonzero">
            <g id="Group-8" transform="translate(818.000000, 1050.000000)">
                <g id="Group-2-Copy">
                    <g id="medicine" transform="translate(38.000000, 46.000000)">
                        <path d="M40,0 C42.2053125,0 44,1.7946875 44,4 C44,5.7359375 42.8826563,7.20140625 41.3332813,7.7546875 L41.3332813,7.7546875 L41.3332813,12.6467188 C43.0532813,13.71875 44,15.3120313 44,17.3334375 C44,19.7921875 42.7932813,21.1240625 41.3332813,21.9654687 L41.3332813,21.9654687 L41.3332813,32.7814062 L48.9820877,40.4305544 C49.4465822,40.9073313 53.3334375,45.0763051 53.3334375,50.6667188 C53.3334375,55.8667188 49.0401563,59.5334375 48.85875,59.688125 L48.85875,59.688125 L40.6960938,67.8560937 L44.8001563,70.9334375 C46.2028125,72.1401563 48.0240625,74.65875 46.3960938,76.8054688 C45.9973438,77.3321875 45.2426563,77.9601562 43.9173438,77.9601562 C43.12125,77.9601562 42.2439063,77.7240625 41.3332813,77.3760937 L41.3332813,77.3760937 L41.3332813,78.6667188 C41.3332813,79.4026563 40.7359375,80 40,80 C39.2640625,80 38.6667188,79.4026562 38.6667188,78.6667188 L38.6667188,78.6667188 L38.6667188,76.1573437 L38.6667188,76.1573437 L38.3307813,75.989375 L38.0707813,75.86 C35.3654688,74.5067187 32.0001563,72.8240625 32.0001563,68 C32.0001563,63.5 34.9321875,60.5159375 35.0575,60.390625 L35.0575,60.390625 L38.666875,56.0546875 L38.666875,46.5067187 L28.5001563,38.3746875 C28.208125,38.14 21.3334375,32.5573438 21.3334375,25.3332812 C21.3334375,17.8414062 25.986875,13.5159375 28.7375,12.14 C29.9934375,11.5132812 32.3148438,11.1079687 34.6534375,11.1079687 C36.1534375,11.1079687 37.4960938,11.2626563 38.6667188,11.5559375 L38.6667188,11.5559375 L38.6667188,7.75328125 C37.1173438,7.20140625 36,5.7359375 36,4 C36,1.7946875 37.7946875,0 40,0 Z M34.6535938,13.7746875 C32.5401563,13.7746875 30.6775,14.1520313 29.9295313,14.5267187 C27.726875,15.6267188 24.0001563,19.1428125 24.0001563,25.3334375 C24.0001563,31.2654688 30.106875,36.2440625 30.166875,36.2934375 L30.166875,36.2934375 L43.5001563,46.95875 C43.5375,46.989375 43.5748438,47.0226562 43.6095313,47.0573437 C43.785625,47.2334375 45.3335938,48.8332812 45.3335938,50.6667188 C45.3335938,52.5001563 43.7854688,54.1001563 43.6095313,54.2760938 L43.6095313,54.2760938 L37.0242188,62.1867188 C36.9242188,62.2959375 34.666875,64.6320312 34.666875,68 C34.666875,71.0226562 36.4134375,72.0492187 39.2628125,73.4732812 L39.2628125,73.4732812 L39.5254688,73.6053125 C41.1054688,74.3959375 42.8948438,75.2932813 43.9175,75.2932813 C44.1960938,75.2932813 44.2467188,75.2267188 44.2707813,75.1946875 C44.6573438,74.6853125 43.6107813,73.4253125 43.129375,73.009375 L43.129375,73.009375 L37.8667188,69.0667188 C37.5575,68.8346875 37.3640625,68.48 37.3360938,68.0946875 C37.309375,67.709375 37.4507813,67.330625 37.7240625,67.0573438 L37.7240625,67.0573438 L47.0573438,57.7240625 C47.1746875,57.6173438 50.6667188,54.6079687 50.6670313,50.6665625 C50.6670313,45.94 47.0935938,42.311875 47.0576563,42.2759375 L47.0576563,42.2759375 L39.1417188,34.36125 C39.0896875,34.3159375 39.045625,34.270625 39.0003125,34.2185938 L39.0003125,34.2185938 L33.6968456,28.9147665 C33.4269205,28.6381893 32.0003125,27.0932313 32.0003125,25.3332813 C32.0003125,23.3320313 34.605625,21.8732813 35.404375,21.4732813 C36.155,21.0985937 36.9642188,20.829375 37.745625,20.5679687 C40.295,19.7185938 41.3335938,19.1879688 41.3335938,17.3332812 C41.3335938,14.030625 36.2215625,13.7746875 34.6535938,13.7746875 Z M47.2626563,65.4732812 C47.889375,65.7867187 48.5626563,66.4385937 48.5746875,67.326875 C48.58,67.7601562 48.42,68.5775 47.2932813,69.1775 C47.0932813,69.2828125 46.8785938,69.3334375 46.6679688,69.3334375 C46.1907813,69.3334375 45.729375,69.0773437 45.489375,68.6267187 C45.2640625,68.2014062 45.290625,67.7107812 45.5173438,67.3240625 C45.3107813,66.950625 45.2826563,66.4867187 45.4867188,66.08 C45.8146875,65.42125 46.6053125,65.1453125 47.2626563,65.4732812 Z M30.8585938,43.68 C31.4598438,44.1040625 31.6053125,44.9346875 31.18125,45.5373438 C29.9546875,47.2814063 29.3332813,49.0067188 29.3332813,50.6667188 C29.3332813,53.4465625 31.0614063,55.8759375 32.5120313,57.4253125 C33.0159375,57.9626563 32.9879688,58.8067188 32.450625,59.309375 C32.1932813,59.5507813 31.8653125,59.669375 31.5385938,59.669375 C31.1839063,59.669375 30.8279688,59.528125 30.5653125,59.248125 C28.7867188,57.348125 26.6667188,54.3173438 26.6667188,50.6667188 C26.6667188,48.4467188 27.4520313,46.2053125 29,44.0026563 C29.4239063,43.4 30.2559375,43.2559375 30.8585938,43.68 Z M36.7185938,48.4359375 C37.4,48.7132812 37.7279688,49.490625 37.4503125,50.1720313 C37.374375,50.3626562 37.3329688,50.5334375 37.3329688,50.6667188 C37.3329688,50.8053125 37.3810938,51.1146875 37.6970313,51.6267188 C38.08375,52.2532813 37.8890625,53.0746875 37.2623438,53.4626563 C37.0451563,53.5971875 36.8023438,53.66125 36.56375,53.66125 C36.1157813,53.66125 35.6798438,53.4359375 35.4278125,53.0279687 C34.9225,52.2092188 34.6665625,51.4159375 34.6665625,50.6665625 C34.6665625,50.1853125 34.771875,49.68125 34.98125,49.1679688 C35.2585938,48.4865625 36.0359375,48.1573437 36.7185938,48.4359375 Z M41.3332813,48.64 L41.3332813,52.8520312 L41.6425,52.4798437 C42.10125,52.0065625 42.6665625,51.1892187 42.6665625,50.6665625 C42.6665625,50.1653125 42.1451563,49.3920312 41.7665625,48.9879687 L41.7665625,48.9879687 L41.3332813,48.64 Z M46.6155492,11.1606546 L46.749375,11.1614063 C48.630625,11.289375 50.2759375,11.6467188 51.2626563,12.14 C54.0132813,13.5159375 58.6667188,17.8414063 58.6667188,25.3334375 C58.6667188,32.5573438 51.5667188,38.32 51.2653125,38.5614063 C51.02,38.7575 50.7253125,38.8534375 50.4332813,38.8534375 C50.0425,38.8534375 49.6559375,38.6828125 49.391875,38.3534375 C48.931875,37.7801563 49.0253125,36.9415625 49.5985938,36.4801563 C49.6626563,36.428125 56,31.2667188 56,25.3334375 C56,19.1426563 52.2732813,15.6267188 50.070625,14.5267188 C49.5345313,14.2573438 48.2439063,13.9360938 46.5665625,13.8214063 C45.8320313,13.770625 45.2773438,13.1346875 45.3279688,12.4 C45.3724023,11.7572852 45.877168,11.2603979 46.4840668,11.1730154 L46.6155492,11.1606546 Z M34.6451563,7.76125 C34.7689355,8.43991211 34.3536981,9.09289368 33.7047008,9.28065575 L33.571875,9.311875 L4.3171875,14.6304687 C3.371875,14.933125 2.6665625,15.5145312 2.6665625,15.9998437 C2.6665625,17.1517555 2.93119918,17.7428368 3.68153502,19.084482 L3.82796875,19.3451562 L4.16,19.8745312 L14.429375,18.02125 C15.16,17.8879687 15.848125,18.371875 15.97875,19.0959375 C16.1012109,19.775918 15.6858911,20.4278833 15.0368887,20.6143545 L14.9040625,20.6453125 L5.68140625,22.309375 L7.53453125,25.2748437 L14.5559375,24.6921875 C15.291875,24.629375 15.9345313,25.1775 15.9959375,25.9107812 C16.0524081,26.6009283 15.5726849,27.2131515 14.9047101,27.3328121 L14.7773438,27.349375 L9.1253125,27.81875 L10.4185938,29.889375 C12.010625,31.810625 14.2867188,32.0559375 18.2453125,30.7346875 C18.9467188,30.5 19.6985938,30.8814062 19.9321875,31.57875 C20.1654688,32.2775 19.7867188,33.0321875 19.088125,33.2654687 C17.53875,33.7815625 15.8067188,34.2348437 14.0960938,34.2348437 C12.009375,34.2348437 9.95328125,33.5601562 8.2946875,31.5028125 L8.24662109,31.4401172 L8.20265625,31.3734375 L1.5359375,20.7067187 C0.5440625,18.950625 6.82121026e-13,17.8946875 6.82121026e-13,16 C6.82121026e-13,14.2667187 1.41859375,12.72 3.6146875,12.0560937 L3.68804688,12.0372852 L3.76140625,12.0214062 L33.0945313,6.68796875 C33.8210938,6.55859375 34.513125,7.03734375 34.6451563,7.76125 Z M46.7693832,6.67099426 L46.9053125,6.68796875 L76.2385938,12.02125 C76.2879688,12.030625 76.3359375,12.0426562 76.3853125,12.0559375 C78.5814063,12.72 79.9998438,14.2667187 79.9998438,16 C79.9998438,17.7762695 79.5218011,18.8153564 78.6698715,20.342408 L78.4945313,20.6546875 L71.7971875,31.3732812 C71.7692188,31.4185937 71.7384375,31.4626562 71.7051563,31.5026562 C70.0465625,33.56 67.990625,34.2346875 65.9039063,34.2346875 C64.1932813,34.2346875 62.46125,33.78125 60.911875,33.2653125 C60.213125,33.031875 59.8345313,32.2771875 60.0678125,31.5785937 C60.30125,30.88125 61.053125,30.4998437 61.7545313,30.7345312 C65.6027545,32.018183 67.8592659,31.8233639 69.4432121,30.0498085 L69.58125,29.8892187 L70.8745313,27.8171875 L65.2225,27.3492187 C64.4892188,27.2892187 63.9439063,26.6439062 64.0039063,25.910625 C64.0617004,25.2204779 64.6367263,24.6944831 65.3155178,24.6872264 L65.4439063,24.6920312 L72.4653125,25.2746875 L74.3173438,22.309375 L65.0959375,20.6453125 C64.371875,20.5145312 63.890625,19.82125 64.02125,19.0959375 C64.1438574,18.4171289 64.758515,17.9493951 65.434696,18.0034004 L65.570625,18.02125 L75.8385938,19.8745312 L76.2026563,19.293125 C77.0346875,17.8145312 77.3332813,17.2239062 77.3332813,15.9998437 C77.3332813,15.5448633 76.7133777,15.0054254 75.8569762,14.6903919 L75.6826563,14.6304687 L46.4279688,9.311875 C45.7040625,9.17984375 45.2226563,8.4853125 45.3546875,7.76125 C45.4784668,7.08375977 46.0931976,6.62077759 46.7693832,6.67099426 Z M46.4107813,22.66125 C47.4801563,23.5332812 48.0001563,24.4079687 48.0001563,25.3332812 C48.0001563,27.0933812 46.5734043,28.6383452 46.3036059,28.9147844 L46.2760938,28.9426562 L44.57875,30.8320312 C44.3146875,31.1240625 43.9520313,31.2734375 43.5867188,31.2734375 C43.269375,31.2734375 42.949375,31.1601562 42.6946875,30.9307812 C42.1845625,30.4703854 42.1121708,29.7056451 42.5048255,29.1612234 L42.5960938,29.048125 L44.3428125,27.108125 C44.7667188,26.6746875 45.3267188,25.8640625 45.3334375,25.3414062 C45.3346875,25.3760937 45.2267188,25.1360937 44.7240625,24.7267187 C44.1546875,24.2614062 44.069375,23.4214062 44.5348438,22.850625 C45.0001563,22.28125 45.8401563,22.1959375 46.4107813,22.66125 Z M38.6667188,23.0720312 C38.6414063,23.08 38.6132813,23.089375 38.588125,23.0985937 C37.8628125,23.34 37.17875,23.5679687 36.5960938,23.86 C35.7228125,24.3 34.7628125,25.06 34.6601563,25.3920312 C34.6667188,25.8560937 35.2320313,26.6734375 35.6134375,27.0614062 L35.6134375,27.0614062 L38.6667188,30.1146875 Z M36.0267188,16.0001562 L36.04,16.0001562 C36.7773438,16.0001562 37.3732813,16.5975 37.3732813,17.3334375 C37.3732813,18.069375 36.7773438,18.6667187 36.04,18.6667187 C35.3040625,18.6667187 34.7,18.069375 34.7,17.3334375 C34.7,16.6407904 35.2233218,16.0709115 35.8984449,16.0062637 L36.0267188,16.0001562 L36.04,16.0001562 Z M40,2.66671875 C39.2653125,2.66671875 38.6667188,3.2653125 38.6667188,4 C38.6667188,4.7346875 39.2653125,5.33328125 40,5.33328125 C40.7346875,5.33328125 41.3332813,4.7346875 41.3332813,4 C41.3332813,3.2653125 40.7346875,2.66671875 40,2.66671875 Z" id="Combined-Shape"></path>
                    </g>
                </g>
            </g>
        </g>
    </g>
</svg>