<?xml version="1.0" encoding="UTF-8"?>
<svg width="80px" height="80px" viewBox="0 0 80 80" version="1.1" xmlns="http://www.w3.org/2000/svg" xmlns:xlink="http://www.w3.org/1999/xlink">
    <!-- Generator: Sketch 57.1 (83088) - https://sketch.com -->
    <title>Combined Shape</title>
    <desc>Created with Sketch.</desc>
    <g id="Final-Designs" stroke="none" stroke-width="1" fill="none" fill-rule="evenodd">
        <g id="Ensure---Main" transform="translate(-1235.000000, -1468.000000)" fill="#C5467F" fill-rule="nonzero">
            <g id="Group-8" transform="translate(818.000000, 1050.000000)">
                <g id="Group-2-Copy-4" transform="translate(382.000000, 377.000000)">
                    <g id="handshake" transform="translate(35.000000, 41.000000)">
                        <path d="M9.6884375,54.8864063 C10.1071875,54.2796875 10.9364062,54.1264063 11.543125,54.5464063 C12.1484375,54.9651563 12.3017187,55.7957813 11.883125,56.4010938 C11.5057812,56.9478125 11.5004687,58.2451563 12.6710937,59.4157813 C13.7723437,60.5157813 15.0484375,60.565 15.77375,60.1464063 C16.3510937,59.811875 17.0910937,59.9571875 17.4990625,60.4878125 C17.9070312,61.0184375 17.8590625,61.7704688 17.384375,62.24375 L17.384375,62.24375 L16.4417187,63.1864063 C15.403125,64.225 15.403125,65.9170313 16.4417187,66.9570313 C17.4803125,67.9970313 19.17375,67.9970313 20.2123437,66.9570313 L20.2123437,66.9570313 L21.155,66.014375 C21.67625,65.494375 22.5203125,65.494375 23.0403125,66.014375 C23.3015625,66.275625 23.4309375,66.6157813 23.4309375,66.9570313 C23.4309375,67.2982813 23.3017187,67.6396875 23.0403125,67.8996875 C22.0017187,68.9396875 22.0017187,70.6317188 23.0403125,71.6717188 C24.0776562,72.7103125 25.7709375,72.7117188 26.8123437,71.6717188 C27.295,71.1878125 28.0615625,71.1478125 28.5909375,71.5757813 C29.1229687,72.00375 29.245625,72.7610938 28.8776562,73.334375 C28.5070312,73.913125 28.4976562,75.2423438 29.6403125,76.3864063 C30.7829687,77.5264063 32.0509375,77.4798438 32.7935937,77.0904688 C33.4429687,76.7478125 34.2509375,77.0010938 34.5923437,77.651875 C34.935,78.3051563 34.6829687,79.1104688 34.0309375,79.451875 C33.3789062,79.793125 32.5870312,79.9971875 31.7429687,79.9971875 C30.4282812,79.9971875 28.9882812,79.5039063 27.755,78.271875 C26.744375,77.2598438 26.2096875,76.1039063 26.044375,74.9998438 C24.335,75.3625 22.4817187,74.8825 21.155,73.5571875 C20.2323437,72.6345313 19.7190625,71.4545313 19.615,70.2465625 C17.8590625,70.6798438 15.924375,70.211875 14.5564062,68.8425 C13.5484375,67.8359375 12.99375,66.4959375 12.99375,65.071875 C12.99375,64.3078125 13.15375,63.5678125 13.4578125,62.8904688 C12.5510937,62.6490625 11.6310937,62.1451563 10.7857812,61.3010938 C8.6390625,59.154375 8.60984375,56.4490625 9.6884375,54.8864063 Z M10.2764062,33.7278125 C12.3217187,35.773125 12.8484375,38.8292188 13.4057812,42.0651563 C14.048357,45.7953078 14.7736509,50.0067816 17.9694859,53.4110651 L18.2764062,53.7278125 L40.955,76.3851563 C41.995,77.4265625 43.6882812,77.4239063 44.725625,76.3865625 C45.2296875,75.8826563 45.5070312,75.2132813 45.5070312,74.50125 C45.5070312,73.8591563 45.2823828,73.2528797 44.8699916,72.7705838 L44.725625,72.6145313 L32.4696875,60.3585938 C31.9484375,59.8373438 31.9484375,58.9932813 32.4696875,58.4732813 C32.9550208,57.9867813 33.7225125,57.9543479 34.2466103,58.3759813 L34.355,58.4732813 L46.6096875,70.7279688 L46.6110937,70.7279688 L48.4978125,72.6132813 C49.5057812,73.6225 51.2604687,73.6225 52.2684375,72.6145313 C53.2651042,71.6178646 53.3066319,70.0223706 52.3930208,68.9758017 L52.2684375,68.8425 L37.184375,53.7584375 C36.6629687,53.2371875 36.6629687,52.393125 37.184375,51.873125 C37.6697083,51.3864792 38.4372,51.3540361 38.9612978,51.7757958 L39.0696875,51.873125 L56.0389062,68.84375 C57.0803125,69.8839063 58.7709375,69.8810938 59.8109375,68.8425 C60.8076042,67.847181 60.8491319,66.2517432 59.9355208,65.2051766 L59.8109375,65.071875 L41.8976562,47.1585938 C41.37625,46.6385938 41.37625,45.7946875 41.8976562,45.2732813 C42.3829896,44.7866354 43.1504812,44.7541924 43.674579,45.1759521 L43.7829687,45.2732813 L57.924375,59.4159375 C58.9657812,60.4545313 60.6590625,60.4532813 61.6964062,59.4159375 C62.6930729,58.4192708 62.7346007,56.8237769 61.8209896,55.7772079 L61.6964062,55.6439063 L47.555,41.5025 C47.03375,40.9810938 47.03375,40.1371875 47.555,39.6157813 C48.0415,39.1304479 48.8079806,39.0980924 49.3319383,39.5187146 L49.4403125,39.6157813 L63.5829687,53.7585938 C65.6615625,55.8371875 65.6615625,59.22125 63.5829687,61.30125 C62.9649219,61.9180313 62.2313234,62.3523094 61.4522258,62.6030592 L61.1909375,62.6798438 L61.69625,63.1865625 C63.77625,65.2665625 63.77625,68.649375 61.69625,70.7279688 C60.0548437,72.369375 57.5989062,72.7173438 55.61625,71.7653125 C55.4135937,72.7946875 54.9121875,73.7414063 54.1535937,74.5 C52.5735937,76.0826563 50.0282812,76.48125 48.0735937,75.5385938 C47.8709375,76.5678125 47.3682812,77.5132813 46.6109375,78.271875 C45.5723437,79.3104688 44.205625,79.8304688 42.8403125,79.831875 C41.5591602,79.831875 40.2789691,79.3736078 39.2681749,78.4605495 L39.0696875,78.271875 L16.3910937,55.613125 C12.3351562,51.5570313 11.4710937,46.5451563 10.7778125,42.5184375 C10.27375,39.5890625 9.8378125,37.0598438 8.39109375,35.613125 C7.8696875,35.091875 7.86984375,34.2492188 8.39109375,33.7278125 C8.91234375,33.2064063 9.755,33.2064063 10.2764062,33.7278125 Z M72.9429687,28.3946875 C73.464375,28.9159375 73.464375,29.76 72.9429687,30.28 C71.3376562,31.8865625 70.67625,35.02125 70.0376562,38.0532813 C69.3455266,41.338941 68.6312288,44.7321093 66.6457443,46.912471 L66.4109375,47.1585938 L64.525625,49.0439063 C64.264375,49.3051563 63.9229687,49.4345313 63.5829687,49.4345313 C63.2415625,49.4345313 62.9001562,49.3053125 62.6389062,49.0439063 C62.1535729,48.5585729 62.1212174,47.7910813 62.5418396,47.2669835 L62.6389062,47.1585938 L64.525625,45.2732813 C66.0025125,43.7963938 66.6792875,41.0250433 67.2744113,38.2321413 L67.4282812,37.5039063 L67.5889856,36.7440596 C68.2650465,33.5750975 69.0514352,30.4007523 71.0576562,28.3945313 C71.5790625,27.873125 72.4217187,27.873125 72.9429687,28.3946875 Z M55.0964062,11.331875 C55.5829062,11.8172083 55.6153396,12.5848361 55.1937062,13.108825 L55.0964062,13.2171875 L51.3257812,16.9892188 C49.1283244,19.1866756 46.8163788,19.26245 44.9266159,19.2650629 L44.4932918,19.2652791 C42.8803737,19.2678589 41.5666401,19.3246145 40.2070729,20.5732382 L40.0125,20.7598438 L23.9845312,36.7878125 L24.9271875,37.7304688 C26.385722,39.1890032 28.8932993,39.2392975 30.4230564,37.8813516 L30.583125,37.7304688 L38.1271875,30.1878125 C38.6471875,29.6678125 39.4910937,29.6678125 40.0125,30.1878125 C42.1940625,32.3692245 45.0677658,33.6072561 48.1387184,33.6959698 L48.4939062,33.7010938 C51.7046875,33.6996875 54.7232812,32.4464063 56.9953125,30.174375 C57.5165625,29.6529688 58.3592187,29.6529688 58.880625,30.174375 C59.4020312,30.694375 59.4020312,31.5384375 58.880625,32.0596875 C56.1984271,34.7430938 52.6626726,36.2616566 48.8902846,36.3623119 L48.4992187,36.3676563 C45.159375,36.3676563 41.9946191,35.2619448 39.4175009,33.2234595 L39.1110937,32.974375 L32.4696875,39.6157813 C31.2096875,40.8745313 29.5364062,41.5678125 27.755,41.5678125 C26.0727083,41.5678125 24.4878371,40.9492834 23.2554819,39.820292 L23.0417187,39.6157813 L22.0990625,38.673125 C21.595,38.1704688 21.3164062,37.5010938 21.3164062,36.7878125 C21.3164062,36.1458594 21.5420672,35.5394703 21.9555722,35.0571505 L22.1003125,34.9010938 L38.1271875,18.8745313 C40.2461638,16.755555 42.4703781,16.6094187 44.3209001,16.5993403 L44.7257812,16.5985938 C46.4463247,16.5985938 47.820337,16.5985938 49.2457397,15.2905118 L49.4404687,15.1039063 L53.2110937,11.331875 C53.7323437,10.8104688 54.5764062,10.8104688 55.0964062,11.331875 Z M16.8346218,2.96376458 L16.9429687,3.06109375 L24.9429687,11.0610938 C25.4296146,11.5477396 25.4620576,12.3142299 25.0402979,12.8381883 L24.9429687,12.9465625 L2.27625,35.613125 C2.01625,35.873125 1.67484375,36.00375 1.33359375,36.00375 C0.99234375,36.00375 0.6509375,35.873125 0.3909375,35.613125 C-0.0955625,35.126625 -0.127995833,34.3601444 0.2936375,33.8361867 L0.3909375,33.7278125 L22.115,12.00375 L15.0576562,4.94640625 C14.53625,4.42515625 14.53625,3.58234375 15.0576562,3.06109375 C15.5441562,2.57444792 16.3107729,2.54200486 16.8346218,2.96376458 Z M62.27625,0.39453125 C62.7628958,0.88103125 62.7953389,1.64751181 62.3735792,2.17146958 L62.27625,2.27984375 L57.885625,6.67046875 L79.6096875,28.3945313 C80.1309375,28.9157813 80.1309375,29.7584375 79.6096875,30.2798438 C79.3496875,30.5398438 79.0082812,30.6704688 78.6670312,30.6704688 C78.3745312,30.6704688 78.0819165,30.5744994 77.8405498,30.3833478 L77.724375,30.2798438 L55.0576562,7.613125 C54.5710104,7.126625 54.5385674,6.36014444 54.9603271,5.83618667 L55.0576562,5.7278125 L60.3909375,0.39453125 C60.9121875,-0.12671875 61.7548437,-0.12671875 62.27625,0.39453125 Z M26.7042146,16.8919188 L26.8123437,16.9892188 L30.5829687,20.7598438 C31.104375,21.2810938 31.104375,22.1251563 30.5829687,22.6451563 C30.3229687,22.9064063 29.9817187,23.0357813 29.6403125,23.0357813 C29.3488839,23.0357813 29.0564222,22.940845 28.8142903,22.749103 L28.6976562,22.6451563 L24.9270312,18.8745313 C24.4070312,18.353125 24.4070312,17.5092188 24.9270312,16.9892188 C25.4135312,16.5027188 26.1812368,16.4702854 26.7042146,16.8919188 Z M12.0003125,9.33703125 C13.4710937,9.33703125 14.6670312,10.533125 14.6670312,12.00375 C14.6670312,13.4745313 13.4709375,14.6704688 12.0003125,14.6704688 C10.5296875,14.6704688 9.33359375,13.4745313 9.33359375,12.00375 C9.33359375,10.5329688 10.5296875,9.33703125 12.0003125,9.33703125 Z M68.0003125,4.00375 C69.4696875,4.00375 70.6670312,5.19984375 70.6670312,6.67046875 C70.6670312,8.14125 69.4696875,9.3371875 68.0003125,9.3371875 C66.5309375,9.3371875 65.3335937,8.14109375 65.3335937,6.67046875 C65.3335937,5.1996875 66.5309375,4.00375 68.0003125,4.00375 Z" id="Combined-Shape"></path>
                    </g>
                </g>
            </g>
        </g>
    </g>
</svg>