<?xml version="1.0" encoding="UTF-8"?>
<svg width="50px" height="50px" viewBox="0 0 50 50" version="1.1" xmlns="http://www.w3.org/2000/svg" xmlns:xlink="http://www.w3.org/1999/xlink">
    <!-- Generator: Sketch 57.1 (83088) - https://sketch.com -->
    <title>Border</title>
    <desc>Created with Sketch.</desc>
    <g id="Final-Designs" stroke="none" stroke-width="1" fill="none" fill-rule="evenodd" opacity="0.200000003">
        <g id="Ensure---Service-Detail" transform="translate(-791.000000, -622.000000)">
            <g id="Item" transform="translate(792.000000, 623.000000)">
                <g id="Icon">
                    <g id="Border">
                        <rect id="Shape" stroke="#252767" x="0" y="0" width="48" height="48" rx="24"></rect>
                        <path d="M20.4765506,31.3953813 L13.3007693,24.4425017 C13.1002483,24.247039 12.9999881,23.9957301 12.9999881,23.688575 C12.9999881,23.3814199 13.1002483,23.130111 13.3007693,22.9346483 L14.8906131,21.4267949 C15.0911341,21.2034095 15.341785,21.0917292 15.6425662,21.0917292 C15.9433475,21.0917292 16.2083216,21.2034095 16.4374881,21.4267949 L21.2499881,26.1178944 L31.5624881,16.0655384 C31.7916545,15.8421529 32.0566287,15.7304599 32.35741,15.7304599 C32.6581912,15.7304599 32.908842,15.8421529 33.1093631,16.0655384 L34.6992068,17.5733918 C34.8997279,17.7688545 34.9999881,18.0201634 34.9999881,18.3273185 C34.9999881,18.6344736 34.8997279,18.8857825 34.6992068,19.0812452 L22.0234256,31.3953813 C21.8229045,31.6187668 21.565092,31.7304599 21.2499881,31.7304599 C20.9348841,31.7304599 20.6770716,31.6187668 20.4765506,31.3953813 Z" id="Icon" fill="#3639A4" fill-rule="nonzero"></path>
                    </g>
                </g>
            </g>
        </g>
    </g>
</svg>